<svg width="289" height="51" viewBox="0 0 289 51" fill="none" xmlns="http://www.w3.org/2000/svg">
<g clip-path="url(#clip0_153_812)">
<rect x="1" y="0.5" width="50" height="50" rx="5" fill="#406BBF"/>
<path opacity="0.4" d="M16.4779 54.7459L7.6001 25.4391C17.2475 34.4196 24.1664 37.4425 28.234 38.2819C31.4881 38.9533 48.3581 20.0765 55.5249 10.6714V55.5L16.4779 54.7459Z" fill="#132039"/>
<path d="M58.3744 5.66243C60.2417 7.52972 60.2417 10.5572 58.3744 12.4245L32.6668 38.1322L25.9047 31.3701L51.6124 5.66243C53.4797 3.79514 56.5071 3.79514 58.3744 5.66243Z" fill="#9FB5DF"/>
<path d="M9.00056 21.226C10.8679 19.3588 13.8953 19.3588 15.7626 21.226L32.6677 38.1312L29.2867 41.5122C27.4194 43.3795 24.392 43.3795 22.5247 41.5122L9.00056 27.9881C7.13328 26.1208 7.13328 23.0933 9.00056 21.226Z" fill="#D9E1F2"/>
</g>
<path d="M71.944 42.5V15.236H61.192V8.9H90.472V15.236H79.72V42.5H71.944ZM108.655 42.5V37.46L108.175 36.356V27.332C108.175 25.732 107.679 24.484 106.687 23.588C105.727 22.692 104.239 22.244 102.223 22.244C100.847 22.244 99.4874 22.468 98.1434 22.916C96.8314 23.332 95.7114 23.908 94.7834 24.644L92.0954 19.412C93.5034 18.42 95.1994 17.652 97.1834 17.108C99.1674 16.564 101.183 16.292 103.231 16.292C107.167 16.292 110.223 17.22 112.399 19.076C114.575 20.932 115.663 23.828 115.663 27.764V42.5H108.655ZM100.783 42.884C98.7674 42.884 97.0394 42.548 95.5994 41.876C94.1594 41.172 93.0554 40.228 92.2874 39.044C91.5194 37.86 91.1354 36.532 91.1354 35.06C91.1354 33.524 91.5034 32.18 92.2394 31.028C93.0074 29.876 94.2074 28.98 95.8394 28.34C97.4714 27.668 99.5994 27.332 102.223 27.332H109.087V31.7H103.039C101.279 31.7 100.063 31.988 99.3914 32.564C98.7514 33.14 98.4314 33.86 98.4314 34.724C98.4314 35.684 98.7994 36.452 99.5354 37.028C100.303 37.572 101.343 37.844 102.655 37.844C103.903 37.844 105.023 37.556 106.015 36.98C107.007 36.372 107.727 35.492 108.175 34.34L109.327 37.796C108.783 39.46 107.791 40.724 106.351 41.588C104.911 42.452 103.055 42.884 100.783 42.884ZM131.128 42.884C128.92 42.884 126.792 42.628 124.744 42.116C122.728 41.572 121.128 40.9 119.944 40.1L122.44 34.724C123.624 35.46 125.016 36.068 126.616 36.548C128.248 36.996 129.848 37.22 131.416 37.22C133.144 37.22 134.36 37.012 135.064 36.596C135.8 36.18 136.168 35.604 136.168 34.868C136.168 34.26 135.88 33.812 135.304 33.524C134.76 33.204 134.024 32.964 133.096 32.804C132.168 32.644 131.144 32.484 130.024 32.324C128.936 32.164 127.832 31.956 126.712 31.7C125.592 31.412 124.568 30.996 123.64 30.452C122.712 29.908 121.96 29.172 121.384 28.244C120.84 27.316 120.568 26.116 120.568 24.644C120.568 23.012 121.032 21.572 121.96 20.324C122.92 19.076 124.296 18.1 126.088 17.396C127.88 16.66 130.024 16.292 132.52 16.292C134.28 16.292 136.072 16.484 137.896 16.868C139.72 17.252 141.24 17.812 142.456 18.548L139.96 23.876C138.712 23.14 137.448 22.644 136.168 22.388C134.92 22.1 133.704 21.956 132.52 21.956C130.856 21.956 129.64 22.18 128.872 22.628C128.104 23.076 127.72 23.652 127.72 24.356C127.72 24.996 127.992 25.476 128.536 25.796C129.112 26.116 129.864 26.372 130.792 26.564C131.72 26.756 132.728 26.932 133.816 27.092C134.936 27.22 136.056 27.428 137.176 27.716C138.296 28.004 139.304 28.42 140.2 28.964C141.128 29.476 141.88 30.196 142.456 31.124C143.032 32.02 143.32 33.204 143.32 34.676C143.32 36.276 142.84 37.7 141.88 38.948C140.92 40.164 139.528 41.124 137.704 41.828C135.912 42.532 133.72 42.884 131.128 42.884ZM154.132 37.22L154.324 28.1L166.372 16.676H175.3L163.732 28.436L159.844 31.604L154.132 37.22ZM147.94 42.5V6.884H155.428V42.5H147.94ZM167.188 42.5L158.452 31.652L163.156 25.844L176.26 42.5H167.188ZM203.196 8.9H210.972V42.5H203.196V8.9ZM187.932 42.5H180.156V8.9H187.932V42.5ZM203.772 28.724H187.356V22.148H203.772V28.724ZM229.29 42.884C227.146 42.884 225.226 42.468 223.53 41.636C221.866 40.804 220.57 39.54 219.642 37.844C218.714 36.116 218.25 33.924 218.25 31.268V16.676H225.738V30.164C225.738 32.308 226.186 33.892 227.082 34.916C228.01 35.908 229.306 36.404 230.97 36.404C232.122 36.404 233.146 36.164 234.042 35.684C234.938 35.172 235.642 34.404 236.154 33.38C236.666 32.324 236.922 31.012 236.922 29.444V16.676H244.41V42.5H237.306V35.396L238.602 37.46C237.738 39.252 236.458 40.612 234.762 41.54C233.098 42.436 231.274 42.884 229.29 42.884ZM266.611 42.884C264.339 42.884 262.387 42.404 260.755 41.444C259.123 40.484 257.875 39.028 257.011 37.076C256.147 35.092 255.715 32.596 255.715 29.588C255.715 26.548 256.163 24.052 257.059 22.1C257.987 20.148 259.267 18.692 260.899 17.732C262.531 16.772 264.435 16.292 266.611 16.292C269.043 16.292 271.219 16.836 273.139 17.924C275.091 19.012 276.627 20.548 277.747 22.532C278.899 24.516 279.475 26.868 279.475 29.588C279.475 32.276 278.899 34.612 277.747 36.596C276.627 38.58 275.091 40.132 273.139 41.252C271.219 42.34 269.043 42.884 266.611 42.884ZM251.347 42.5V6.884H258.835V21.908L258.355 29.54L258.499 37.22V42.5H251.347ZM265.315 36.74C266.563 36.74 267.667 36.452 268.627 35.876C269.619 35.3 270.403 34.484 270.979 33.428C271.587 32.34 271.891 31.06 271.891 29.588C271.891 28.084 271.587 26.804 270.979 25.748C270.403 24.692 269.619 23.876 268.627 23.3C267.667 22.724 266.563 22.436 265.315 22.436C264.067 22.436 262.947 22.724 261.955 23.3C260.963 23.876 260.179 24.692 259.603 25.748C259.027 26.804 258.739 28.084 258.739 29.588C258.739 31.06 259.027 32.34 259.603 33.428C260.179 34.484 260.963 35.3 261.955 35.876C262.947 36.452 264.067 36.74 265.315 36.74Z" fill="#406BBF"/>
<defs>
<clipPath id="clip0_153_812">
<rect x="1" y="0.5" width="50" height="50" rx="5" fill="white"/>
</clipPath>
</defs>
</svg>
